999
SPDX-License-Identifier: CERN-OHL-P-2.0
0
SECTION
2
HEADER
9
$ACADVER
1
AC1014
9
$INSUNITS
70
4
9
$MEASUREMENT
70
1
9
$LUNITS
70
2
9
$LUPREC
70
2
9
$EXTMIN
10
0.0
20
0.0
30
0.0
9
$EXTMAX
10
300.0
20
80.0
30
0.0
0
ENDSEC
0
SECTION
2
TABLES
0
TABLE
2
LTYPE
70
2
0
LTYPE
2
CONTINUOUS
70
0
3
Solid line
72
65
73
0
40
0.0
0
LTYPE
2
DASHED
70
0
3
Dashed line __ __ __
72
65
73
2
40
10.0
49
6.0
74
0
49
-4.0
74
0
0
ENDTAB
0
TABLE
2
LAYER
70
5
0
LAYER
2
OUTLINE
70
0
62
7
6
CONTINUOUS
0
LAYER
2
HOLES
70
0
62
1
6
CONTINUOUS
0
LAYER
2
BEND
70
0
62
5
6
DASHED
0
LAYER
2
DIMENSIONS
70
0
62
3
6
CONTINUOUS
0
LAYER
2
NOTES
70
0
62
2
6
CONTINUOUS
0
ENDTAB
0
TABLE
2
STYLE
70
1
0
STYLE
2
STANDARD
70
0
40
0.0
41
1.0
50
0.0
71
0
42
2.5
3
txt
4

0
ENDTAB
0
ENDTAB
0
ENDSEC
0
SECTION
2
BLOCKS
0
ENDSEC
0
SECTION
2
ENTITIES
0
LINE
8
OUTLINE
10
0.0
20
0.0
30
0.0
11
300.0
21
0.0
31
0.0
0
LINE
8
OUTLINE
10
300.0
20
0.0
30
0.0
11
300.0
21
80.0
31
0.0
0
LINE
8
OUTLINE
10
300.0
20
80.0
30
0.0
11
0.0
21
80.0
31
0.0
0
LINE
8
OUTLINE
10
0.0
20
80.0
30
0.0
11
0.0
21
0.0
31
0.0
0
LINE
8
BEND
10
10.0
20
0.0
30
0.0
11
10.0
21
80.0
31
0.0
0
LINE
8
BEND
10
290.0
20
0.0
30
0.0
11
290.0
21
80.0
31
0.0
0
LINE
8
HOLES
10
145.25
20
38.25
30
0.0
11
154.75
21
38.25
31
0.0
0
LINE
8
HOLES
10
154.75
20
38.25
30
0.0
11
154.75
21
41.75
31
0.0
0
LINE
8
HOLES
10
154.75
20
41.75
30
0.0
11
145.25
21
41.75
31
0.0
0
LINE
8
HOLES
10
145.25
20
41.75
30
0.0
11
145.25
21
38.25
31
0.0
0
LINE
8
HOLES
10
144.0
20
56.0
30
0.0
11
156.0
21
56.0
31
0.0
0
LINE
8
HOLES
10
156.0
20
56.0
30
0.0
11
156.0
21
64.0
31
0.0
0
LINE
8
HOLES
10
156.0
20
64.0
30
0.0
11
144.0
21
64.0
31
0.0
0
LINE
8
HOLES
10
144.0
20
64.0
30
0.0
11
144.0
21
56.0
31
0.0
0
CIRCLE
8
HOLES
10
50.0
20
25.0
30
0.0
40
2.5
0
CIRCLE
8
HOLES
10
60.0
20
25.0
30
0.0
40
2.5
0
CIRCLE
8
HOLES
10
70.0
20
25.0
30
0.0
40
2.5
0
CIRCLE
8
HOLES
10
50.0
20
40.0
30
0.0
40
2.5
0
CIRCLE
8
HOLES
10
60.0
20
40.0
30
0.0
40
2.5
0
CIRCLE
8
HOLES
10
70.0
20
40.0
30
0.0
40
2.5
0
DIMENSION
8
DIMENSIONS
10
150.0
20
-10.0
30
0.0
11
150.0
21
-10.0
31
0.0
13
0.0
23
0.0
33
0.0
14
300.0
24
0.0
34
0.0
70
0
1
300
0
DIMENSION
8
DIMENSIONS
10
-10.0
20
40.0
30
0.0
11
-10.0
21
40.0
31
0.0
13
0.0
23
0.0
33
0.0
14
0.0
24
80.0
34
0.0
70
0
1
80
0
DIMENSION
8
DIMENSIONS
10
150.0
20
40.0
30
0.0
11
150.0
21
40.0
31
0.0
13
145.25
23
40.0
33
0.0
14
154.75
24
40.0
34
0.0
70
0
1
9.5x3.5 USB-C
0
DIMENSION
8
DIMENSIONS
10
150.0
20
60.0
30
0.0
11
150.0
21
60.0
31
0.0
13
144.0
23
60.0
33
0.0
14
156.0
24
60.0
34
0.0
70
0
1
12x8 XT30
0
TEXT
8
NOTES
10
5.0
20
-20.0
30
0.0
40
3.5
1
MATERIAL: 6061-T6 AL, 2mm, BLACK ANODIZED
0
TEXT
8
NOTES
10
5.0
20
-28.0
30
0.0
40
3.0
1
TOL: HOLES +/-0.1mm, OUTLINE +/-0.5mm
0
TEXT
8
NOTES
10
5.0
20
-36.0
30
0.0
40
3.0
1
CHASSIS REAR PANEL - QTY 1
0
TEXT
8
NOTES
10
5.0
20
88.0
30
0.0
40
2.5
1
BEND: R2.0 INT (1x MATERIAL THK), 90 DEG FORWARD
0
TEXT
8
NOTES
10
5.0
20
94.0
30
0.0
40
2.5
1
USB-C CUTOUT: 9.5x3.5mm AT (150, 40)
0
TEXT
8
NOTES
10
5.0
20
100.0
30
0.0
40
2.5
1
XT30 CUTOUT: 12x8mm AT (150, 60)
0
TEXT
8
NOTES
10
5.0
20
106.0
30
0.0
40
2.5
1
VENTILATION: 5mm DIA (6x) 2x3 GRID LEFT SIDE
0
ENDSEC
0
EOF
