999
SPDX-License-Identifier: CERN-OHL-P-2.0
0
SECTION
2
HEADER
9
$ACADVER
1
AC1014
9
$INSUNITS
70
4
9
$MEASUREMENT
70
1
9
$LUNITS
70
2
9
$LUPREC
70
2
9
$EXTMIN
10
0.0
20
0.0
30
0.0
9
$EXTMAX
10
250.0
20
80.0
30
0.0
0
ENDSEC
0
SECTION
2
TABLES
0
TABLE
2
LTYPE
70
2
0
LTYPE
2
CONTINUOUS
70
0
3
Solid line
72
65
73
0
40
0.0
0
LTYPE
2
DASHED
70
0
3
Dashed line __ __ __
72
65
73
2
40
10.0
49
6.0
74
0
49
-4.0
74
0
0
ENDTAB
0
TABLE
2
LAYER
70
5
0
LAYER
2
OUTLINE
70
0
62
7
6
CONTINUOUS
0
LAYER
2
HOLES
70
0
62
1
6
CONTINUOUS
0
LAYER
2
BEND
70
0
62
5
6
DASHED
0
LAYER
2
DIMENSIONS
70
0
62
3
6
CONTINUOUS
0
LAYER
2
NOTES
70
0
62
2
6
CONTINUOUS
0
ENDTAB
0
TABLE
2
STYLE
70
1
0
STYLE
2
STANDARD
70
0
40
0.0
41
1.0
50
0.0
71
0
42
2.5
3
txt
4

0
ENDTAB
0
ENDTAB
0
ENDSEC
0
SECTION
2
BLOCKS
0
ENDSEC
0
SECTION
2
ENTITIES
0
LINE
8
OUTLINE
10
0.0
20
0.0
30
0.0
11
250.0
21
0.0
31
0.0
0
LINE
8
OUTLINE
10
250.0
20
0.0
30
0.0
11
250.0
21
80.0
31
0.0
0
LINE
8
OUTLINE
10
250.0
20
80.0
30
0.0
11
0.0
21
80.0
31
0.0
0
LINE
8
OUTLINE
10
0.0
20
80.0
30
0.0
11
0.0
21
0.0
31
0.0
0
LINE
8
BEND
10
10.0
20
0.0
30
0.0
11
10.0
21
80.0
31
0.0
0
LINE
8
BEND
10
240.0
20
0.0
30
0.0
11
240.0
21
80.0
31
0.0
0
CIRCLE
8
HOLES
10
35.0
20
40.0
30
0.0
40
13.0
0
CIRCLE
8
HOLES
10
215.0
20
40.0
30
0.0
40
13.0
0
CIRCLE
8
HOLES
10
23.0
20
28.0
30
0.0
40
1.1
0
CIRCLE
8
HOLES
10
47.0
20
28.0
30
0.0
40
1.1
0
CIRCLE
8
HOLES
10
23.0
20
52.0
30
0.0
40
1.1
0
CIRCLE
8
HOLES
10
47.0
20
52.0
30
0.0
40
1.1
0
CIRCLE
8
HOLES
10
203.0
20
28.0
30
0.0
40
1.1
0
CIRCLE
8
HOLES
10
227.0
20
28.0
30
0.0
40
1.1
0
CIRCLE
8
HOLES
10
203.0
20
52.0
30
0.0
40
1.1
0
CIRCLE
8
HOLES
10
227.0
20
52.0
30
0.0
40
1.1
0
CIRCLE
8
HOLES
10
125.0
20
20.0
30
0.0
40
2.0
0
CIRCLE
8
HOLES
10
125.0
20
60.0
30
0.0
40
2.0
0
DIMENSION
8
DIMENSIONS
10
125.0
20
-10.0
30
0.0
11
125.0
21
-10.0
31
0.0
13
0.0
23
0.0
33
0.0
14
250.0
24
0.0
34
0.0
70
0
1
250
0
DIMENSION
8
DIMENSIONS
10
-10.0
20
40.0
30
0.0
11
-10.0
21
40.0
31
0.0
13
0.0
23
0.0
33
0.0
14
0.0
24
80.0
34
0.0
70
0
1
80
0
DIMENSION
8
DIMENSIONS
10
35.0
20
90.0
30
0.0
11
35.0
21
90.0
31
0.0
13
35.0
23
40.0
33
0.0
14
35.0
24
40.0
34
0.0
70
0
1
%%C26 MOTOR CUTOUT
0
DIMENSION
8
DIMENSIONS
10
10.0
20
-5.0
30
0.0
11
10.0
21
-5.0
31
0.0
13
0.0
23
0.0
33
0.0
14
10.0
24
0.0
34
0.0
70
0
1
10 FLANGE
0
TEXT
8
NOTES
10
5.0
20
-20.0
30
0.0
40
3.5
1
MATERIAL: 6061-T6 AL, 2mm, BLACK ANODIZED
0
TEXT
8
NOTES
10
5.0
20
-28.0
30
0.0
40
3.0
1
TOL: HOLES +/-0.1mm, OUTLINE +/-0.5mm
0
TEXT
8
NOTES
10
5.0
20
-36.0
30
0.0
40
3.0
1
CHASSIS SIDE PANEL - QTY 2 (MIRROR)
0
TEXT
8
NOTES
10
5.0
20
88.0
30
0.0
40
2.5
1
BEND: R2.0 INT (1x MATERIAL THK), 90 DEG DOWN
0
TEXT
8
NOTES
10
5.0
20
94.0
30
0.0
40
2.5
1
MOTOR CUTOUTS: 26mm DIA FOR N20 BODIES (2x)
0
TEXT
8
NOTES
10
5.0
20
100.0
30
0.0
40
2.5
1
MOTOR BRACKET M2 HOLES: 2.2mm DIA (8x TOTAL)
0
TEXT
8
NOTES
10
5.0
20
106.0
30
0.0
40
2.5
1
CABLE STRAIN RELIEF: 4mm DIA (2x)
0
ENDSEC
0
EOF
