999
SPDX-License-Identifier: CERN-OHL-P-2.0
0
SECTION
2
HEADER
9
$ACADVER
1
AC1014
9
$INSUNITS
70
4
9
$MEASUREMENT
70
1
9
$LUNITS
70
2
9
$LUPREC
70
2
9
$EXTMIN
10
0.0
20
0.0
30
0.0
9
$EXTMAX
10
300.0
20
250.0
30
0.0
0
ENDSEC
0
SECTION
2
TABLES
0
TABLE
2
LTYPE
70
2
0
LTYPE
2
CONTINUOUS
70
0
3
Solid line
72
65
73
0
40
0.0
0
LTYPE
2
DASHED
70
0
3
Dashed line __ __ __
72
65
73
2
40
10.0
49
6.0
74
0
49
-4.0
74
0
0
ENDTAB
0
TABLE
2
LAYER
70
5
0
LAYER
2
OUTLINE
70
0
62
7
6
CONTINUOUS
0
LAYER
2
HOLES
70
0
62
1
6
CONTINUOUS
0
LAYER
2
BEND
70
0
62
5
6
DASHED
0
LAYER
2
DIMENSIONS
70
0
62
3
6
CONTINUOUS
0
LAYER
2
NOTES
70
0
62
2
6
CONTINUOUS
0
ENDTAB
0
TABLE
2
STYLE
70
1
0
STYLE
2
STANDARD
70
0
40
0.0
41
1.0
50
0.0
71
0
42
2.5
3
txt
4

0
ENDTAB
0
ENDTAB
0
ENDSEC
0
SECTION
2
BLOCKS
0
ENDSEC
0
SECTION
2
ENTITIES
0
LINE
8
OUTLINE
10
3.0
20
0.0
30
0.0
11
297.0
21
0.0
31
0.0
0
ARC
8
OUTLINE
10
297.0
20
3.0
30
0.0
40
3.0
50
270.0
51
360.0
0
LINE
8
OUTLINE
10
300.0
20
3.0
30
0.0
11
300.0
21
247.0
31
0.0
0
ARC
8
OUTLINE
10
297.0
20
247.0
30
0.0
40
3.0
50
0.0
51
90.0
0
LINE
8
OUTLINE
10
297.0
20
250.0
30
0.0
11
3.0
21
250.0
31
0.0
0
ARC
8
OUTLINE
10
3.0
20
247.0
30
0.0
40
3.0
50
90.0
51
180.0
0
LINE
8
OUTLINE
10
0.0
20
247.0
30
0.0
11
0.0
21
3.0
31
0.0
0
ARC
8
OUTLINE
10
3.0
20
3.0
30
0.0
40
3.0
50
180.0
51
270.0
0
CIRCLE
8
HOLES
10
75.0
20
100.0
30
0.0
40
1.6
0
CIRCLE
8
HOLES
10
225.0
20
100.0
30
0.0
40
1.6
0
CIRCLE
8
HOLES
10
75.0
20
150.0
30
0.0
40
1.6
0
CIRCLE
8
HOLES
10
225.0
20
150.0
30
0.0
40
1.6
0
LINE
8
HOLES
10
142.5
20
240.0
30
0.0
11
157.5
21
240.0
31
0.0
0
LINE
8
HOLES
10
157.5
20
240.0
30
0.0
11
157.5
21
250.0
31
0.0
0
LINE
8
HOLES
10
157.5
20
250.0
30
0.0
11
142.5
21
250.0
31
0.0
0
LINE
8
HOLES
10
142.5
20
250.0
30
0.0
11
142.5
21
240.0
31
0.0
0
CIRCLE
8
HOLES
10
140.0
20
115.0
30
0.0
40
2.5
0
CIRCLE
8
HOLES
10
160.0
20
115.0
30
0.0
40
2.5
0
CIRCLE
8
HOLES
10
140.0
20
135.0
30
0.0
40
2.5
0
CIRCLE
8
HOLES
10
160.0
20
135.0
30
0.0
40
2.5
0
DIMENSION
8
DIMENSIONS
10
150.0
20
-10.0
30
0.0
11
150.0
21
-10.0
31
0.0
13
0.0
23
0.0
33
0.0
14
300.0
24
0.0
34
0.0
70
0
1
300
0
DIMENSION
8
DIMENSIONS
10
-10.0
20
125.0
30
0.0
11
-10.0
21
125.0
31
0.0
13
0.0
23
0.0
33
0.0
14
0.0
24
250.0
34
0.0
70
0
1
250
0
TEXT
8
NOTES
10
5.0
20
-20.0
30
0.0
40
3.5
1
MATERIAL: 6061-T6 AL, 2mm, BLACK ANODIZED
0
TEXT
8
NOTES
10
5.0
20
-28.0
30
0.0
40
3.0
1
TOL: HOLES +/-0.1mm, OUTLINE +/-0.5mm
0
TEXT
8
NOTES
10
5.0
20
-36.0
30
0.0
40
3.0
1
CHASSIS BOTTOM PLATE - QTY 1
0
TEXT
8
NOTES
10
5.0
20
260.0
30
0.0
40
2.5
1
M3 BATTERY BRACKET (4x) - 3.2mm DIA
0
TEXT
8
NOTES
10
5.0
20
266.0
30
0.0
40
2.5
1
XT30 ACCESS CUTOUT: 15x10mm AT REAR CENTER
0
TEXT
8
NOTES
10
5.0
20
272.0
30
0.0
40
2.5
1
VENTILATION HOLES: 5mm DIA (4x)
0
ENDSEC
0
EOF
