999
SPDX-License-Identifier: CERN-OHL-P-2.0
0
SECTION
2
HEADER
9
$ACADVER
1
AC1014
9
$INSUNITS
70
4
9
$MEASUREMENT
70
1
9
$LUNITS
70
2
9
$LUPREC
70
2
9
$EXTMIN
10
0.0
20
0.0
30
0.0
9
$EXTMAX
10
30.0
20
35.0
30
0.0
0
ENDSEC
0
SECTION
2
TABLES
0
TABLE
2
LTYPE
70
2
0
LTYPE
2
CONTINUOUS
70
0
3
Solid line
72
65
73
0
40
0.0
0
LTYPE
2
DASHED
70
0
3
Dashed line __ __ __
72
65
73
2
40
10.0
49
6.0
74
0
49
-4.0
74
0
0
ENDTAB
0
TABLE
2
LAYER
70
5
0
LAYER
2
OUTLINE
70
0
62
7
6
CONTINUOUS
0
LAYER
2
HOLES
70
0
62
1
6
CONTINUOUS
0
LAYER
2
BEND
70
0
62
5
6
DASHED
0
LAYER
2
DIMENSIONS
70
0
62
3
6
CONTINUOUS
0
LAYER
2
NOTES
70
0
62
2
6
CONTINUOUS
0
ENDTAB
0
TABLE
2
STYLE
70
1
0
STYLE
2
STANDARD
70
0
40
0.0
41
1.0
50
0.0
71
0
42
2.5
3
txt
4

0
ENDTAB
0
ENDTAB
0
ENDSEC
0
SECTION
2
BLOCKS
0
ENDSEC
0
SECTION
2
ENTITIES
0
LINE
8
OUTLINE
10
0.0
20
0.0
30
0.0
11
30.0
21
0.0
31
0.0
0
LINE
8
OUTLINE
10
30.0
20
0.0
30
0.0
11
30.0
21
15.0
31
0.0
0
LINE
8
OUTLINE
10
30.0
20
15.0
30
0.0
11
15.0
21
15.0
31
0.0
0
LINE
8
OUTLINE
10
15.0
20
15.0
30
0.0
11
15.0
21
35.0
31
0.0
0
LINE
8
OUTLINE
10
15.0
20
35.0
30
0.0
11
0.0
21
35.0
31
0.0
0
LINE
8
OUTLINE
10
0.0
20
35.0
30
0.0
11
0.0
21
0.0
31
0.0
0
LINE
8
BEND
10
0.0
20
15.0
30
0.0
11
15.0
21
15.0
31
0.0
0
CIRCLE
8
HOLES
10
7.5
20
5.0
30
0.0
40
1.1
0
CIRCLE
8
HOLES
10
22.5
20
5.0
30
0.0
40
1.1
0
CIRCLE
8
HOLES
10
7.5
20
25.0
30
0.0
40
6.0
0
CIRCLE
8
HOLES
10
-0.5
20
17.0
30
0.0
40
1.1
0
CIRCLE
8
HOLES
10
15.5
20
17.0
30
0.0
40
1.1
0
CIRCLE
8
HOLES
10
-0.5
20
33.0
30
0.0
40
1.1
0
CIRCLE
8
HOLES
10
15.5
20
33.0
30
0.0
40
1.1
0
DIMENSION
8
DIMENSIONS
10
15.0
20
-5.0
30
0.0
11
15.0
21
-5.0
31
0.0
13
0.0
23
0.0
33
0.0
14
30.0
24
0.0
34
0.0
70
0
1
30
0
DIMENSION
8
DIMENSIONS
10
-5.0
20
7.5
30
0.0
11
-5.0
21
7.5
31
0.0
13
0.0
23
0.0
33
0.0
14
0.0
24
15.0
34
0.0
70
0
1
15 HORIZ
0
DIMENSION
8
DIMENSIONS
10
20.0
20
25.0
30
0.0
11
20.0
21
25.0
31
0.0
13
15.0
23
15.0
33
0.0
14
15.0
24
35.0
34
0.0
70
0
1
20 VERT
0
DIMENSION
8
DIMENSIONS
10
7.5
20
25.0
30
0.0
11
7.5
21
25.0
31
0.0
13
7.5
23
25.0
33
0.0
14
7.5
24
25.0
34
0.0
70
0
1
%%C12 SHAFT CLR
0
TEXT
8
NOTES
10
0.0
20
-12.0
30
0.0
40
2.5
1
MATERIAL: 6061-T6 AL, 1.5mm OR 2mm STEEL
0
TEXT
8
NOTES
10
0.0
20
-18.0
30
0.0
40
2.0
1
TOL: HOLES +/-0.1mm, OUTLINE +/-0.3mm
0
TEXT
8
NOTES
10
0.0
20
-24.0
30
0.0
40
2.0
1
N20 MOTOR BRACKET - QTY 4
0
TEXT
8
NOTES
10
0.0
20
40.0
30
0.0
40
2.0
1
BEND: 90 DEG, R1.5 INT
0
TEXT
8
NOTES
10
0.0
20
44.0
30
0.0
40
2.0
1
HORIZONTAL ARM: 30x15mm, M2 MOUNT (2x)
0
TEXT
8
NOTES
10
0.0
20
48.0
30
0.0
40
2.0
1
VERTICAL ARM: 15x20mm, 12mm SHAFT HOLE
0
TEXT
8
NOTES
10
0.0
20
52.0
30
0.0
40
2.0
1
M2 MOTOR ATTACH HOLES: 2.2mm DIA (4x)
0
ENDSEC
0
EOF
