999
SPDX-License-Identifier: CERN-OHL-P-2.0
0
SECTION
2
HEADER
9
$ACADVER
1
AC1014
9
$INSUNITS
70
4
9
$MEASUREMENT
70
1
9
$LUNITS
70
2
9
$LUPREC
70
2
9
$EXTMIN
10
0.0
20
0.0
30
0.0
9
$EXTMAX
10
100.0
20
100.0
30
0.0
0
ENDSEC
0
SECTION
2
TABLES
0
TABLE
2
LTYPE
70
2
0
LTYPE
2
CONTINUOUS
70
0
3
Solid line
72
65
73
0
40
0.0
0
LTYPE
2
DASHED
70
0
3
Dashed line __ __ __
72
65
73
2
40
10.0
49
6.0
74
0
49
-4.0
74
0
0
ENDTAB
0
TABLE
2
LAYER
70
5
0
LAYER
2
OUTLINE
70
0
62
7
6
CONTINUOUS
0
LAYER
2
HOLES
70
0
62
1
6
CONTINUOUS
0
LAYER
2
BEND
70
0
62
5
6
DASHED
0
LAYER
2
DIMENSIONS
70
0
62
3
6
CONTINUOUS
0
LAYER
2
NOTES
70
0
62
2
6
CONTINUOUS
0
ENDTAB
0
TABLE
2
STYLE
70
1
0
STYLE
2
STANDARD
70
0
40
0.0
41
1.0
50
0.0
71
0
42
2.5
3
txt
4

0
ENDTAB
0
ENDTAB
0
ENDSEC
0
SECTION
2
BLOCKS
0
ENDSEC
0
SECTION
2
ENTITIES
0
LINE
8
OUTLINE
10
2.0
20
0.0
30
0.0
11
98.0
21
0.0
31
0.0
0
ARC
8
OUTLINE
10
98.0
20
2.0
30
0.0
40
2.0
50
270.0
51
360.0
0
LINE
8
OUTLINE
10
100.0
20
2.0
30
0.0
11
100.0
21
98.0
31
0.0
0
ARC
8
OUTLINE
10
98.0
20
98.0
30
0.0
40
2.0
50
0.0
51
90.0
0
LINE
8
OUTLINE
10
98.0
20
100.0
30
0.0
11
2.0
21
100.0
31
0.0
0
ARC
8
OUTLINE
10
2.0
20
98.0
30
0.0
40
2.0
50
90.0
51
180.0
0
LINE
8
OUTLINE
10
0.0
20
98.0
30
0.0
11
0.0
21
2.0
31
0.0
0
ARC
8
OUTLINE
10
2.0
20
2.0
30
0.0
40
2.0
50
180.0
51
270.0
0
CIRCLE
8
HOLES
10
10.0
20
10.0
30
0.0
40
1.6
0
CIRCLE
8
HOLES
10
90.0
20
10.0
30
0.0
40
1.6
0
CIRCLE
8
HOLES
10
10.0
20
90.0
30
0.0
40
1.6
0
CIRCLE
8
HOLES
10
90.0
20
90.0
30
0.0
40
1.6
0
LINE
8
HOLES
10
30.0
20
40.0
30
0.0
11
70.0
21
40.0
31
0.0
0
LINE
8
HOLES
10
70.0
20
40.0
30
0.0
11
70.0
21
60.0
31
0.0
0
LINE
8
HOLES
10
70.0
20
60.0
30
0.0
11
30.0
21
60.0
31
0.0
0
LINE
8
HOLES
10
30.0
20
60.0
30
0.0
11
30.0
21
40.0
31
0.0
0
DIMENSION
8
DIMENSIONS
10
50.0
20
-10.0
30
0.0
11
50.0
21
-10.0
31
0.0
13
0.0
23
0.0
33
0.0
14
100.0
24
0.0
34
0.0
70
0
1
100
0
DIMENSION
8
DIMENSIONS
10
-10.0
20
50.0
30
0.0
11
-10.0
21
50.0
31
0.0
13
0.0
23
0.0
33
0.0
14
0.0
24
100.0
34
0.0
70
0
1
100
0
DIMENSION
8
DIMENSIONS
10
50.0
20
110.0
30
0.0
11
50.0
21
110.0
31
0.0
13
10.0
23
10.0
33
0.0
14
90.0
24
10.0
34
0.0
70
0
1
80 BOLT PATTERN
0
DIMENSION
8
DIMENSIONS
10
50.0
20
50.0
30
0.0
11
50.0
21
50.0
31
0.0
13
30.0
23
50.0
33
0.0
14
70.0
24
50.0
34
0.0
70
0
1
40x20 CONNECTOR
0
TEXT
8
NOTES
10
2.0
20
-12.0
30
0.0
40
3.0
1
MATERIAL: 6061-T6 AL, 3mm
0
TEXT
8
NOTES
10
2.0
20
-19.0
30
0.0
40
2.5
1
TOL: HOLES +/-0.1mm, OUTLINE +/-0.3mm
0
TEXT
8
NOTES
10
2.0
20
-26.0
30
0.0
40
2.5
1
PAYLOAD ADAPTER PLATE - QTY 1
0
TEXT
8
NOTES
10
2.0
20
108.0
30
0.0
40
2.0
1
M3 MOUNTING HOLES: 3.2mm DIA (4x) ON 80x80mm PATTERN
0
TEXT
8
NOTES
10
2.0
20
113.0
30
0.0
40
2.0
1
CENTER CUTOUT: 40x20mm FOR PBC-34 CONNECTOR PASS-THROUGH
0
TEXT
8
NOTES
10
2.0
20
118.0
30
0.0
40
2.0
1
FINISH: CLEAR ANODIZED
0
ENDSEC
0
EOF
